<svg xmlns="http://www.w3.org/2000/svg" xmlns:xlink="http://www.w3.org/1999/xlink" width="990" height="711.3"><rect width="990" height="711.3" rx="5" ry="5" class="a"/><svg y="0%" x="0%"><circle cx="20" cy="20" r="6" fill="#ff5f58"/><circle cx="40" cy="20" r="6" fill="#ffbd2e"/><circle cx="60" cy="20" r="6" fill="#18c132"/></svg><svg height="651.3" viewBox="0 0 95 65.13" width="950" x="15" xmlns="http://www.w3.org/2000/svg" xmlns:xlink="http://www.w3.org/1999/xlink" y="50"><style>@keyframes l{0%{transform:translateX(0)}1%{transform:translateX(-95px)}1.1%{transform:translateX(-190px)}1.3%{transform:translateX(-475px)}3.8%{transform:translateX(-570px)}5.4%{transform:translateX(-665px)}8%{transform:translateX(-760px)}9%{transform:translateX(-855px)}10.7%{transform:translateX(-950px)}12.1%{transform:translateX(-1045px)}13.7%{transform:translateX(-1140px)}15.1%{transform:translateX(-1235px)}16.3%{transform:translateX(-1330px)}18.1%{transform:translateX(-1425px)}20.8%{transform:translateX(-1520px)}25.9%{transform:translateX(-1615px)}27.4%{transform:translateX(-1900px)}28.6%{transform:translateX(-2185px)}28.9%{transform:translateX(-2470px)}34.5%{transform:translateX(-2565px)}36.3%{transform:translateX(-2660px)}38%{transform:translateX(-2755px)}38.9%{transform:translateX(-2850px)}41.6%{transform:translateX(-2945px)}43%{transform:translateX(-3040px)}44.5%{transform:translateX(-3135px)}46%{transform:translateX(-3230px)}47.9%{transform:translateX(-3325px)}50%{transform:translateX(-3420px)}52.3%{transform:translateX(-3515px)}56.9%{transform:translateX(-3610px)}58.2%{transform:translateX(-3895px)}59.4%{transform:translateX(-4180px)}59.7%{transform:translateX(-4465px)}65.2%{transform:translateX(-4560px)}66.3%{transform:translateX(-4655px)}68%{transform:translateX(-4750px)}69%{transform:translateX(-4845px)}69.9%{transform:translateX(-4940px)}71.5%{transform:translateX(-5035px)}73.2%{transform:translateX(-5130px)}74.7%{transform:translateX(-5225px)}77%{transform:translateX(-5320px)}81%{transform:translateX(-5415px)}83.5%{transform:translateX(-5510px)}86%{transform:translateX(-5605px)}87.2%{transform:translateX(-5890px)}88.5%{transform:translateX(-6175px)}88.7%{transform:translateX(-6460px)}to{transform:translateX(-6555px)}}.a{fill:#282d35}.g{font-weight:700}.g,.h{fill:#a8cc8c}.i{fill:#e88388;font-weight:700}.j{fill:#b9c0cb}</style><g font-size="1.67" font-family="Monaco,Consolas,Menlo,'Bitstream Vera Sans Mono','Powerline Symbols',monospace"><defs><symbol id="1"><text y="1.67" fill="#66c2cd" font-weight="700">~</text></symbol><symbol id="2"><text y="1.67" class="g">➜</text></symbol><symbol id="3"><text y="1.67" class="g">➜</text><text x="2.004" y="1.67" class="h">g</text></symbol><symbol id="4"><text y="1.67" class="g">➜</text><text x="2.004" y="1.67" class="h">gr</text></symbol><symbol id="5"><text y="1.67" class="g">➜</text><text x="2.004" y="1.67" class="i">gre</text></symbol><symbol id="6"><text y="1.67" class="g">➜</text><text x="2.004" y="1.67" class="i">gree</text></symbol><symbol id="7"><text y="1.67" class="g">➜</text><text x="2.004" y="1.67" class="i">greek</text></symbol><symbol id="8"><text y="1.67" class="g">➜</text><text x="2.004" y="1.67" class="i">greeku</text></symbol><symbol id="9"><text y="1.67" class="g">➜</text><text x="2.004" y="1.67" class="h">greekum</text></symbol><symbol id="10"><text y="1.67" class="g">➜</text><text x="2.004" y="1.67" class="h">greekum</text><text x="10.02" y="1.67" class="j">-</text></symbol><symbol id="11"><text y="1.67" class="g">➜</text><text x="2.004" y="1.67" class="h">greekum</text><text x="10.02" y="1.67" class="j">-w</text></symbol><symbol id="12"><text y="1.67" class="g">➜</text><text x="2.004" y="1.67" class="h">greekum</text><text x="10.02" y="1.67" class="j">-w</text><text x="13.026" y="1.67" class="j">4</text></symbol><symbol id="13"><text y="1.67" class="j">νετηραηπνι</text><text x="11.022" y="1.67" class="j">τωμλωσαελμο</text><text x="23.046" y="1.67" class="j">ιτσδβκπλσικθι</text><text x="37.074" y="1.67" class="j">ωλασαυωενσνε</text></symbol><symbol id="14"><text y="1.67" class="g">➜</text><text x="2.004" y="1.67" class="h">greekum</text><text x="10.02" y="1.67" class="j">-c</text></symbol><symbol id="15"><text y="1.67" class="g">➜</text><text x="2.004" y="1.67" class="h">greekum</text><text x="10.02" y="1.67" class="j">-c</text><text x="13.026" y="1.67" class="j">9</text></symbol><symbol id="16"><text y="1.67" class="j">ΑΥΙΕΝΠΟΚΘ</text></symbol><symbol id="17"><text y="1.67" class="g">➜</text><text x="2.004" y="1.67" class="h">greekum</text><text x="10.02" y="1.67" class="j">-s</text></symbol><symbol id="18"><text y="1.67" class="g">➜</text><text x="2.004" y="1.67" class="h">greekum</text><text x="10.02" y="1.67" class="j">-s</text><text x="13.026" y="1.67" class="j">2</text></symbol><symbol id="19"><text y="1.67" class="j">Σασησιυιντι</text><text x="12.024" y="1.67" class="j">νσζτηκοαηοα</text><text x="24.048" y="1.67" class="j">νησεοθκπσμερσδτ</text><text x="40.08" y="1.67" class="j">ιτυνποιχεμ,</text><text x="52.104" y="1.67" class="j">εαλυπτνοτ</text><text x="62.124" y="1.67" class="j">πηανθυμευεμ</text><text x="74.148" y="1.67" class="j">ηλυιλαυονρνμιεξε,</text><text x="92.184" y="1.67" class="j">ηωο</text></symbol><symbol id="20"><text y="1.67" class="j">εηιραυ</text><text x="7.014" y="1.67" class="j">θηυωιτπωεκ</text><text x="18.036" y="1.67" class="j">εμηεφατπεοκ</text><text x="30.06" y="1.67" class="j">υεωαμηαυαχνε</text><text x="43.086" y="1.67" class="j">αχηπινιθαηεαπορ.</text><text x="60.12" y="1.67" class="j">Πσυνσετενλαηρμειαδ</text><text x="79.158" y="1.67" class="j">λαμφηαπ</text><text x="87.174" y="1.67" class="j">ιυκαιευμ</text></symbol><symbol id="21"><text y="1.67" class="j">εγτμαν</text><text x="7.014" y="1.67" class="j">κονεηθιην,</text><text x="18.036" y="1.67" class="j">πκυσωυνπο</text><text x="28.056" y="1.67" class="j">εταπιαωσνυ</text><text x="39.078" y="1.67" class="j">ιτωυαιπβωτσυεα,</text><text x="55.11" y="1.67" class="j">ινξταδενρακανσψυ</text><text x="72.144" y="1.67" class="j">φχνοαοη.</text></symbol><symbol id="a"><path fill="transparent" d="M0 0h95v30H0z"/></symbol></defs><path class="a" d="M0 0h95v65.13H0z"/><g style="animation-duration:16.620695s;animation-iteration-count:infinite;animation-name:l;animation-timing-function:steps(1,end)"><svg width="6650"><svg><use xlink:href="#a"/></svg><svg x="95"><use xlink:href="#a"/></svg><svg x="190"><use xlink:href="#a"/></svg><svg x="285"><use xlink:href="#a"/><use xlink:href="#1" y="2.171"/><use xlink:href="#2" y="4.342"/></svg><svg x="380"><use xlink:href="#a"/><use xlink:href="#1" y="2.171"/><use xlink:href="#2" y="4.342"/></svg><svg x="475"><use xlink:href="#a"/><use xlink:href="#1" y="2.171"/><use xlink:href="#2" y="4.342"/></svg><svg x="570"><use xlink:href="#a"/><use xlink:href="#1" y="2.171"/><use xlink:href="#3" y="4.342"/></svg><svg x="665"><use xlink:href="#a"/><use xlink:href="#1" y="2.171"/><use xlink:href="#4" y="4.342"/></svg><svg x="760"><use xlink:href="#a"/><use xlink:href="#1" y="2.171"/><use xlink:href="#5" y="4.342"/></svg><svg x="855"><use xlink:href="#a"/><use xlink:href="#1" y="2.171"/><use xlink:href="#6" y="4.342"/></svg><svg x="950"><use xlink:href="#a"/><use xlink:href="#1" y="2.171"/><use xlink:href="#7" y="4.342"/></svg><svg x="1045"><use xlink:href="#a"/><use xlink:href="#1" y="2.171"/><use xlink:href="#8" y="4.342"/></svg><svg x="1140"><use xlink:href="#a"/><use xlink:href="#1" y="2.171"/><use xlink:href="#9" y="4.342"/></svg><svg x="1235"><use xlink:href="#a"/><use xlink:href="#1" y="2.171"/><use xlink:href="#9" y="4.342"/></svg><svg x="1330"><use xlink:href="#a"/><use xlink:href="#1" y="2.171"/><use xlink:href="#10" y="4.342"/></svg><svg x="1425"><use xlink:href="#a"/><use xlink:href="#1" y="2.171"/><use xlink:href="#11" y="4.342"/></svg><svg x="1520"><use xlink:href="#a"/><use xlink:href="#1" y="2.171"/><use xlink:href="#11" y="4.342"/></svg><svg x="1615"><use xlink:href="#a"/><use xlink:href="#1" y="2.171"/><use xlink:href="#12" y="4.342"/></svg><svg x="1710"><use xlink:href="#a"/><use xlink:href="#1" y="2.171"/><use xlink:href="#12" y="4.342"/></svg><svg x="1805"><use xlink:href="#a"/><use xlink:href="#1" y="2.171"/><use xlink:href="#12" y="4.342"/></svg><svg x="1900"><use xlink:href="#a"/><use xlink:href="#1" y="2.171"/><use xlink:href="#12" y="4.342"/></svg><svg x="1995"><use xlink:href="#a"/><use xlink:href="#1" y="2.171"/><use xlink:href="#12" y="4.342"/><use xlink:href="#13" y="6.513"/></svg><svg x="2090"><use xlink:href="#a"/><use xlink:href="#1" y="2.171"/><use xlink:href="#12" y="4.342"/><use xlink:href="#13" y="6.513"/></svg><svg x="2185"><use xlink:href="#a"/><use xlink:href="#1" y="2.171"/><use xlink:href="#12" y="4.342"/><use xlink:href="#13" y="6.513"/></svg><svg x="2280"><use xlink:href="#a"/><use xlink:href="#1" y="2.171"/><use xlink:href="#12" y="4.342"/><use xlink:href="#13" y="6.513"/><use xlink:href="#1" y="10.855"/><use xlink:href="#2" y="13.026"/></svg><svg x="2375"><use xlink:href="#a"/><use xlink:href="#1" y="2.171"/><use xlink:href="#12" y="4.342"/><use xlink:href="#13" y="6.513"/><use xlink:href="#1" y="10.855"/><use xlink:href="#2" y="13.026"/></svg><svg x="2470"><use xlink:href="#a"/><use xlink:href="#1" y="2.171"/><use xlink:href="#12" y="4.342"/><use xlink:href="#13" y="6.513"/><use xlink:href="#1" y="10.855"/><use xlink:href="#2" y="13.026"/></svg><svg x="2565"><use xlink:href="#a"/><use xlink:href="#1" y="2.171"/><use xlink:href="#12" y="4.342"/><use xlink:href="#13" y="6.513"/><use xlink:href="#1" y="10.855"/><use xlink:href="#3" y="13.026"/></svg><svg x="2660"><use xlink:href="#a"/><use xlink:href="#1" y="2.171"/><use xlink:href="#12" y="4.342"/><use xlink:href="#13" y="6.513"/><use xlink:href="#1" y="10.855"/><use xlink:href="#4" y="13.026"/></svg><svg x="2755"><use xlink:href="#a"/><use xlink:href="#1" y="2.171"/><use xlink:href="#12" y="4.342"/><use xlink:href="#13" y="6.513"/><use xlink:href="#1" y="10.855"/><use xlink:href="#5" y="13.026"/></svg><svg x="2850"><use xlink:href="#a"/><use xlink:href="#1" y="2.171"/><use xlink:href="#12" y="4.342"/><use xlink:href="#13" y="6.513"/><use xlink:href="#1" y="10.855"/><use xlink:href="#6" y="13.026"/></svg><svg x="2945"><use xlink:href="#a"/><use xlink:href="#1" y="2.171"/><use xlink:href="#12" y="4.342"/><use xlink:href="#13" y="6.513"/><use xlink:href="#1" y="10.855"/><use xlink:href="#7" y="13.026"/></svg><svg x="3040"><use xlink:href="#a"/><use xlink:href="#1" y="2.171"/><use xlink:href="#12" y="4.342"/><use xlink:href="#13" y="6.513"/><use xlink:href="#1" y="10.855"/><use xlink:href="#8" y="13.026"/></svg><svg x="3135"><use xlink:href="#a"/><use xlink:href="#1" y="2.171"/><use xlink:href="#12" y="4.342"/><use xlink:href="#13" y="6.513"/><use xlink:href="#1" y="10.855"/><use xlink:href="#9" y="13.026"/></svg><svg x="3230"><use xlink:href="#a"/><use xlink:href="#1" y="2.171"/><use xlink:href="#12" y="4.342"/><use xlink:href="#13" y="6.513"/><use xlink:href="#1" y="10.855"/><use xlink:href="#9" y="13.026"/></svg><svg x="3325"><use xlink:href="#a"/><use xlink:href="#1" y="2.171"/><use xlink:href="#12" y="4.342"/><use xlink:href="#13" y="6.513"/><use xlink:href="#1" y="10.855"/><use xlink:href="#10" y="13.026"/></svg><svg x="3420"><use xlink:href="#a"/><use xlink:href="#1" y="2.171"/><use xlink:href="#12" y="4.342"/><use xlink:href="#13" y="6.513"/><use xlink:href="#1" y="10.855"/><use xlink:href="#14" y="13.026"/></svg><svg x="3515"><use xlink:href="#a"/><use xlink:href="#1" y="2.171"/><use xlink:href="#12" y="4.342"/><use xlink:href="#13" y="6.513"/><use xlink:href="#1" y="10.855"/><use xlink:href="#14" y="13.026"/></svg><svg x="3610"><use xlink:href="#a"/><use xlink:href="#1" y="2.171"/><use xlink:href="#12" y="4.342"/><use xlink:href="#13" y="6.513"/><use xlink:href="#1" y="10.855"/><use xlink:href="#15" y="13.026"/></svg><svg x="3705"><use xlink:href="#a"/><use xlink:href="#1" y="2.171"/><use xlink:href="#12" y="4.342"/><use xlink:href="#13" y="6.513"/><use xlink:href="#1" y="10.855"/><use xlink:href="#15" y="13.026"/></svg><svg x="3800"><use xlink:href="#a"/><use xlink:href="#1" y="2.171"/><use xlink:href="#12" y="4.342"/><use xlink:href="#13" y="6.513"/><use xlink:href="#1" y="10.855"/><use xlink:href="#15" y="13.026"/></svg><svg x="3895"><use xlink:href="#a"/><use xlink:href="#1" y="2.171"/><use xlink:href="#12" y="4.342"/><use xlink:href="#13" y="6.513"/><use xlink:href="#1" y="10.855"/><use xlink:href="#15" y="13.026"/></svg><svg x="3990"><use xlink:href="#a"/><use xlink:href="#1" y="2.171"/><use xlink:href="#12" y="4.342"/><use xlink:href="#13" y="6.513"/><use xlink:href="#1" y="10.855"/><use xlink:href="#15" y="13.026"/><use xlink:href="#16" y="15.197"/></svg><svg x="4085"><use xlink:href="#a"/><use xlink:href="#1" y="2.171"/><use xlink:href="#12" y="4.342"/><use xlink:href="#13" y="6.513"/><use xlink:href="#1" y="10.855"/><use xlink:href="#15" y="13.026"/><use xlink:href="#16" y="15.197"/></svg><svg x="4180"><use xlink:href="#a"/><use xlink:href="#1" y="2.171"/><use xlink:href="#12" y="4.342"/><use xlink:href="#13" y="6.513"/><use xlink:href="#1" y="10.855"/><use xlink:href="#15" y="13.026"/><use xlink:href="#16" y="15.197"/></svg><svg x="4275"><use xlink:href="#a"/><use xlink:href="#1" y="2.171"/><use xlink:href="#12" y="4.342"/><use xlink:href="#13" y="6.513"/><use xlink:href="#1" y="10.855"/><use xlink:href="#15" y="13.026"/><use xlink:href="#16" y="15.197"/><use xlink:href="#1" y="19.539"/><use xlink:href="#2" y="21.71"/></svg><svg x="4370"><use xlink:href="#a"/><use xlink:href="#1" y="2.171"/><use xlink:href="#12" y="4.342"/><use xlink:href="#13" y="6.513"/><use xlink:href="#1" y="10.855"/><use xlink:href="#15" y="13.026"/><use xlink:href="#16" y="15.197"/><use xlink:href="#1" y="19.539"/><use xlink:href="#2" y="21.71"/></svg><svg x="4465"><use xlink:href="#a"/><use xlink:href="#1" y="2.171"/><use xlink:href="#12" y="4.342"/><use xlink:href="#13" y="6.513"/><use xlink:href="#1" y="10.855"/><use xlink:href="#15" y="13.026"/><use xlink:href="#16" y="15.197"/><use xlink:href="#1" y="19.539"/><use xlink:href="#2" y="21.71"/></svg><svg x="4560"><use xlink:href="#a"/><use xlink:href="#1" y="2.171"/><use xlink:href="#12" y="4.342"/><use xlink:href="#13" y="6.513"/><use xlink:href="#1" y="10.855"/><use xlink:href="#15" y="13.026"/><use xlink:href="#16" y="15.197"/><use xlink:href="#1" y="19.539"/><use xlink:href="#3" y="21.71"/></svg><svg x="4655"><use xlink:href="#a"/><use xlink:href="#1" y="2.171"/><use xlink:href="#12" y="4.342"/><use xlink:href="#13" y="6.513"/><use xlink:href="#1" y="10.855"/><use xlink:href="#15" y="13.026"/><use xlink:href="#16" y="15.197"/><use xlink:href="#1" y="19.539"/><use xlink:href="#4" y="21.71"/></svg><svg x="4750"><use xlink:href="#a"/><use xlink:href="#1" y="2.171"/><use xlink:href="#12" y="4.342"/><use xlink:href="#13" y="6.513"/><use xlink:href="#1" y="10.855"/><use xlink:href="#15" y="13.026"/><use xlink:href="#16" y="15.197"/><use xlink:href="#1" y="19.539"/><use xlink:href="#5" y="21.71"/></svg><svg x="4845"><use xlink:href="#a"/><use xlink:href="#1" y="2.171"/><use xlink:href="#12" y="4.342"/><use xlink:href="#13" y="6.513"/><use xlink:href="#1" y="10.855"/><use xlink:href="#15" y="13.026"/><use xlink:href="#16" y="15.197"/><use xlink:href="#1" y="19.539"/><use xlink:href="#6" y="21.71"/></svg><svg x="4940"><use xlink:href="#a"/><use xlink:href="#1" y="2.171"/><use xlink:href="#12" y="4.342"/><use xlink:href="#13" y="6.513"/><use xlink:href="#1" y="10.855"/><use xlink:href="#15" y="13.026"/><use xlink:href="#16" y="15.197"/><use xlink:href="#1" y="19.539"/><use xlink:href="#7" y="21.71"/></svg><svg x="5035"><use xlink:href="#a"/><use xlink:href="#1" y="2.171"/><use xlink:href="#12" y="4.342"/><use xlink:href="#13" y="6.513"/><use xlink:href="#1" y="10.855"/><use xlink:href="#15" y="13.026"/><use xlink:href="#16" y="15.197"/><use xlink:href="#1" y="19.539"/><use xlink:href="#8" y="21.71"/></svg><svg x="5130"><use xlink:href="#a"/><use xlink:href="#1" y="2.171"/><use xlink:href="#12" y="4.342"/><use xlink:href="#13" y="6.513"/><use xlink:href="#1" y="10.855"/><use xlink:href="#15" y="13.026"/><use xlink:href="#16" y="15.197"/><use xlink:href="#1" y="19.539"/><use xlink:href="#9" y="21.71"/></svg><svg x="5225"><use xlink:href="#a"/><use xlink:href="#1" y="2.171"/><use xlink:href="#12" y="4.342"/><use xlink:href="#13" y="6.513"/><use xlink:href="#1" y="10.855"/><use xlink:href="#15" y="13.026"/><use xlink:href="#16" y="15.197"/><use xlink:href="#1" y="19.539"/><use xlink:href="#9" y="21.71"/></svg><svg x="5320"><use xlink:href="#a"/><use xlink:href="#1" y="2.171"/><use xlink:href="#12" y="4.342"/><use xlink:href="#13" y="6.513"/><use xlink:href="#1" y="10.855"/><use xlink:href="#15" y="13.026"/><use xlink:href="#16" y="15.197"/><use xlink:href="#1" y="19.539"/><use xlink:href="#10" y="21.71"/></svg><svg x="5415"><use xlink:href="#a"/><use xlink:href="#1" y="2.171"/><use xlink:href="#12" y="4.342"/><use xlink:href="#13" y="6.513"/><use xlink:href="#1" y="10.855"/><use xlink:href="#15" y="13.026"/><use xlink:href="#16" y="15.197"/><use xlink:href="#1" y="19.539"/><use xlink:href="#17" y="21.71"/></svg><svg x="5510"><use xlink:href="#a"/><use xlink:href="#1" y="2.171"/><use xlink:href="#12" y="4.342"/><use xlink:href="#13" y="6.513"/><use xlink:href="#1" y="10.855"/><use xlink:href="#15" y="13.026"/><use xlink:href="#16" y="15.197"/><use xlink:href="#1" y="19.539"/><use xlink:href="#17" y="21.71"/></svg><svg x="5605"><use xlink:href="#a"/><use xlink:href="#1" y="2.171"/><use xlink:href="#12" y="4.342"/><use xlink:href="#13" y="6.513"/><use xlink:href="#1" y="10.855"/><use xlink:href="#15" y="13.026"/><use xlink:href="#16" y="15.197"/><use xlink:href="#1" y="19.539"/><use xlink:href="#18" y="21.71"/></svg><svg x="5700"><use xlink:href="#a"/><use xlink:href="#1" y="2.171"/><use xlink:href="#12" y="4.342"/><use xlink:href="#13" y="6.513"/><use xlink:href="#1" y="10.855"/><use xlink:href="#15" y="13.026"/><use xlink:href="#16" y="15.197"/><use xlink:href="#1" y="19.539"/><use xlink:href="#18" y="21.71"/></svg><svg x="5795"><use xlink:href="#a"/><use xlink:href="#1" y="2.171"/><use xlink:href="#12" y="4.342"/><use xlink:href="#13" y="6.513"/><use xlink:href="#1" y="10.855"/><use xlink:href="#15" y="13.026"/><use xlink:href="#16" y="15.197"/><use xlink:href="#1" y="19.539"/><use xlink:href="#18" y="21.71"/></svg><svg x="5890"><use xlink:href="#a"/><use xlink:href="#1" y="2.171"/><use xlink:href="#12" y="4.342"/><use xlink:href="#13" y="6.513"/><use xlink:href="#1" y="10.855"/><use xlink:href="#15" y="13.026"/><use xlink:href="#16" y="15.197"/><use xlink:href="#1" y="19.539"/><use xlink:href="#18" y="21.71"/></svg><svg x="5985"><use xlink:href="#a"/><use xlink:href="#1" y="2.171"/><use xlink:href="#12" y="4.342"/><use xlink:href="#13" y="6.513"/><use xlink:href="#1" y="10.855"/><use xlink:href="#15" y="13.026"/><use xlink:href="#16" y="15.197"/><use xlink:href="#1" y="19.539"/><use xlink:href="#18" y="21.71"/><use xlink:href="#19" y="23.881"/><use xlink:href="#20" y="26.052"/><use xlink:href="#21" y="28.223"/></svg><svg x="6080"><use xlink:href="#a"/><use xlink:href="#1" y="2.171"/><use xlink:href="#12" y="4.342"/><use xlink:href="#13" y="6.513"/><use xlink:href="#1" y="10.855"/><use xlink:href="#15" y="13.026"/><use xlink:href="#16" y="15.197"/><use xlink:href="#1" y="19.539"/><use xlink:href="#18" y="21.71"/><use xlink:href="#19" y="23.881"/><use xlink:href="#20" y="26.052"/><use xlink:href="#21" y="28.223"/></svg><svg x="6175"><use xlink:href="#a"/><use xlink:href="#1" y="2.171"/><use xlink:href="#12" y="4.342"/><use xlink:href="#13" y="6.513"/><use xlink:href="#1" y="10.855"/><use xlink:href="#15" y="13.026"/><use xlink:href="#16" y="15.197"/><use xlink:href="#1" y="19.539"/><use xlink:href="#18" y="21.71"/><use xlink:href="#19" y="23.881"/><use xlink:href="#20" y="26.052"/><use xlink:href="#21" y="28.223"/></svg><svg x="6270"><use xlink:href="#a"/><use xlink:href="#1" y="2.171"/><use xlink:href="#12" y="4.342"/><use xlink:href="#13" y="6.513"/><use xlink:href="#1" y="10.855"/><use xlink:href="#15" y="13.026"/><use xlink:href="#16" y="15.197"/><use xlink:href="#1" y="19.539"/><use xlink:href="#18" y="21.71"/><use xlink:href="#19" y="23.881"/><use xlink:href="#20" y="26.052"/><use xlink:href="#21" y="28.223"/><use xlink:href="#1" y="32.565"/><use xlink:href="#2" y="34.736"/></svg><svg x="6365"><use xlink:href="#a"/><use xlink:href="#1" y="2.171"/><use xlink:href="#12" y="4.342"/><use xlink:href="#13" y="6.513"/><use xlink:href="#1" y="10.855"/><use xlink:href="#15" y="13.026"/><use xlink:href="#16" y="15.197"/><use xlink:href="#1" y="19.539"/><use xlink:href="#18" y="21.71"/><use xlink:href="#19" y="23.881"/><use xlink:href="#20" y="26.052"/><use xlink:href="#21" y="28.223"/><use xlink:href="#1" y="32.565"/><use xlink:href="#2" y="34.736"/></svg><svg x="6460"><use xlink:href="#a"/><use xlink:href="#1" y="2.171"/><use xlink:href="#12" y="4.342"/><use xlink:href="#13" y="6.513"/><use xlink:href="#1" y="10.855"/><use xlink:href="#15" y="13.026"/><use xlink:href="#16" y="15.197"/><use xlink:href="#1" y="19.539"/><use xlink:href="#18" y="21.71"/><use xlink:href="#19" y="23.881"/><use xlink:href="#20" y="26.052"/><use xlink:href="#21" y="28.223"/><use xlink:href="#1" y="32.565"/><use xlink:href="#2" y="34.736"/></svg><svg x="6555"><use xlink:href="#a"/><use xlink:href="#1" y="2.171"/><use xlink:href="#12" y="4.342"/><use xlink:href="#13" y="6.513"/><use xlink:href="#1" y="10.855"/><use xlink:href="#15" y="13.026"/><use xlink:href="#16" y="15.197"/><use xlink:href="#1" y="19.539"/><use xlink:href="#18" y="21.71"/><use xlink:href="#19" y="23.881"/><use xlink:href="#20" y="26.052"/><use xlink:href="#21" y="28.223"/><use xlink:href="#1" y="32.565"/><use xlink:href="#2" y="34.736"/></svg></svg></g></g></svg></svg>